<svg xmlns="http://www.w3.org/2000/svg" width="1056" height="592.549" viewBox="0 0 1056 592.549">
  <defs>
    <style>
      .cls-1 {
        fill: #e7f3fe;
      }

      .cls-2 {
        fill: #9ec8ff;
      }

      .cls-3 {
        fill: #fff;
      }

      .cls-4 {
        opacity: 0.8;
      }

      .cls-5 {
        fill: #f37168;
      }

      .cls-6 {
        fill: #cce2ff;
      }

      .cls-14, .cls-7 {
        fill: #99bbeb;
      }

      .cls-8 {
        fill: #9bd6e8;
      }

      .cls-9 {
        fill: #3a384d;
      }

      .cls-10 {
        fill: #f09959;
      }

      .cls-11 {
        fill: #e38540;
      }

      .cls-12 {
        fill: #7a4e34;
      }

      .cls-13 {
        fill: #d54a41;
      }

      .cls-14 {
        opacity: 0.2;
      }

      .cls-15 {
        fill: #2e2d3d;
      }

      .cls-16 {
        fill: #d5e1e8;
      }

      .cls-17 {
        fill: #bdccd4;
      }

      .cls-18 {
        fill: #2e5b9a;
      }

      .cls-19 {
        fill: #6791c9;
      }

      .cls-20 {
        fill: #75a1de;
      }

      .cls-21 {
        fill: #f2e5de;
      }

      .cls-22 {
        fill: #303c60;
      }

      .cls-23 {
        fill: #74b570;
      }

      .cls-24 {
        fill: #9cd499;
      }
    </style>
  </defs>
  <g id="hr_services_graphic" transform="translate(0.014)">
    <path id="Path_1505" data-name="Path 1505" class="cls-1" d="M153.121,116.391c144.244-53.532,290.848-6.179,390.239,96.926,99.426,103.105,308.067-71.167,418.74,31.765,75.507,70.265,40.93,250.855-62.627,329.1-140.737,106.334-568.781,52.386-661.368,34.3C131.424,587.622,53.453,524.37,21.757,447.614-54.582,262.614,89.383,140.068,153.121,116.391Z" transform="translate(0 -61.471)"/>
    <g id="Group_1213" data-name="Group 1213" transform="translate(109.38)">
      <g id="Group_1208" data-name="Group 1208" transform="translate(300.638)">
        <path id="Path_1506" data-name="Path 1506" class="cls-2" d="M1417.2,129.316a119.953,119.953,0,0,0,.764-13.3c0-2.361-.069-4.721-.208-7.047l-21.975-7.117a96.07,96.07,0,0,0-7.776-26.314l14.581-17.913A118.613,118.613,0,0,0,1391.06,40.86l-21.975,7.151a98.306,98.306,0,0,0-21.732-16.733l1.25-23.086a120.7,120.7,0,0,0-19.163-6.8L1315.8,20.135a96.5,96.5,0,0,0-16.247-1.354,99.143,99.143,0,0,0-11.178.625L1275.8,0a114.883,114.883,0,0,0-19.51,5.763l.035,23.121a97.653,97.653,0,0,0-22.6,15.553L1212.171,36.1a119.5,119.5,0,0,0-12.428,16.143l13.609,18.677a96.725,96.725,0,0,0-9.165,25.863l-22.322,5.936a119.983,119.983,0,0,0-.764,13.3c0,2.361.069,4.721.208,7.047l21.975,7.117a96.074,96.074,0,0,0,7.776,26.314l-14.581,17.913A118.592,118.592,0,0,0,1208,191.179l21.975-7.151a98.307,98.307,0,0,0,21.732,16.733l-1.25,23.086a120.686,120.686,0,0,0,19.163,6.8l13.574-18.712a96.5,96.5,0,0,0,16.247,1.354,99.144,99.144,0,0,0,11.178-.625l12.567,19.406a114.891,114.891,0,0,0,19.51-5.763l-.035-23.121a97.652,97.652,0,0,0,22.6-15.553l21.559,8.332a119.493,119.493,0,0,0,12.428-16.143l-13.609-18.677a96.72,96.72,0,0,0,9.165-25.863ZM1299.55,162.469A46.45,46.45,0,1,1,1346,116.02,46.448,46.448,0,0,1,1299.55,162.469Z" transform="translate(-1181.1)"/>
        <g id="Group_1205" data-name="Group 1205" transform="translate(180.076 88.152)">
          <path id="Path_1507" data-name="Path 1507" class="cls-3" d="M1701.548,334.77a1.737,1.737,0,0,1-1.319-2.847,78.545,78.545,0,0,0,18.087-50.129,77.7,77.7,0,0,0-4.27-25.551,1.746,1.746,0,1,1,3.3-1.146,82.132,82.132,0,0,1-14.442,79.048A1.833,1.833,0,0,1,1701.548,334.77Z" transform="translate(-1699.818 -253.927)"/>
        </g>
        <g id="Group_1206" data-name="Group 1206" transform="translate(145.742 38.887)">
          <path id="Path_1508" data-name="Path 1508" class="cls-3" d="M1630.245,132.492a1.715,1.715,0,0,1-1.18-.486,77.77,77.77,0,0,0-27.009-16.629,1.735,1.735,0,1,1,1.18-3.263,81.484,81.484,0,0,1,28.189,17.358,1.751,1.751,0,0,1,.07,2.465A1.666,1.666,0,0,1,1630.245,132.492Z" transform="translate(-1600.916 -112.016)"/>
        </g>
        <g id="Group_1207" data-name="Group 1207" transform="translate(98.709 34.091)">
          <path id="Path_1509" data-name="Path 1509" class="cls-3" d="M1467.159,104.136a1.7,1.7,0,0,1-1.666-1.319,1.729,1.729,0,0,1,1.25-2.118,81.339,81.339,0,0,1,20.1-2.5,1.736,1.736,0,0,1,0,3.472,78.12,78.12,0,0,0-19.267,2.4A1.744,1.744,0,0,1,1467.159,104.136Z" transform="translate(-1465.436 -98.2)"/>
        </g>
      </g>
      <g id="Group_1212" data-name="Group 1212" transform="translate(0 333.756)">
        <path id="Path_1510" data-name="Path 1510" class="cls-2" d="M478.576,1051a80.8,80.8,0,0,0,.521-9.2c0-1.632-.069-3.263-.139-4.9l-15.205-4.93a67.04,67.04,0,0,0-5.381-18.226l10.1-12.428a83.15,83.15,0,0,0-7.985-11.63l-15.205,4.964a68.093,68.093,0,0,0-15.067-11.6l.868-16a81.6,81.6,0,0,0-13.3-4.721l-9.408,12.984a66.764,66.764,0,0,0-11.248-.937,63.5,63.5,0,0,0-7.742.451L380.678,961.4a80.66,80.66,0,0,0-13.5,3.992l.035,16a67.831,67.831,0,0,0-15.657,10.762L336.624,986.4a86.99,86.99,0,0,0-8.609,11.178l9.408,12.949a67.486,67.486,0,0,0-6.353,17.913l-15.448,4.1a80.793,80.793,0,0,0-.521,9.2c0,1.632.069,3.263.139,4.895l15.205,4.93a67.038,67.038,0,0,0,5.381,18.226l-10.1,12.428a83.167,83.167,0,0,0,7.985,11.63l15.205-4.964a68.1,68.1,0,0,0,15.067,11.595l-.868,16a81.6,81.6,0,0,0,13.3,4.721l9.408-12.984a67.056,67.056,0,0,0,11.248.938,63.489,63.489,0,0,0,7.742-.451l8.714,13.435a80.662,80.662,0,0,0,13.5-3.992l-.035-16a67.829,67.829,0,0,0,15.657-10.762l14.928,5.763a87,87,0,0,0,8.609-11.178l-9.408-12.949a67.486,67.486,0,0,0,6.353-17.913ZM397.1,1073.983A32.181,32.181,0,1,1,429.28,1041.8,32.18,32.18,0,0,1,397.1,1073.983Z" transform="translate(-315.1 -961.4)"/>
        <g id="Group_1209" data-name="Group 1209" transform="translate(124.115 60.553)">
          <path id="Path_1511" data-name="Path 1511" class="cls-3" d="M674.348,1192.89a1.737,1.737,0,0,1-1.319-2.847,53.868,53.868,0,0,0,9.512-51.9,1.746,1.746,0,1,1,3.3-1.146,57.21,57.21,0,0,1-10.1,55.233A1.772,1.772,0,0,1,674.348,1192.89Z" transform="translate(-672.618 -1135.827)"/>
        </g>
        <g id="Group_1210" data-name="Group 1210" transform="translate(100.368 26.424)">
          <path id="Path_1512" data-name="Path 1512" class="cls-3" d="M625.04,1052.785a1.714,1.714,0,0,1-1.18-.486,53.823,53.823,0,0,0-18.5-11.422,1.735,1.735,0,1,1,1.18-3.263,57.158,57.158,0,0,1,19.719,12.15,1.75,1.75,0,0,1,.069,2.465A1.685,1.685,0,0,1,625.04,1052.785Z" transform="translate(-604.216 -1037.516)"/>
        </g>
        <g id="Group_1211" data-name="Group 1211" transform="translate(67.777 23.121)">
          <path id="Path_1513" data-name="Path 1513" class="cls-3" d="M512.059,1033.173a1.7,1.7,0,0,1-1.666-1.319,1.728,1.728,0,0,1,1.25-2.118A57.967,57.967,0,0,1,525.7,1028a1.736,1.736,0,1,1,0,3.472,54.06,54.06,0,0,0-13.192,1.632A1.1,1.1,0,0,1,512.059,1033.173Z" transform="translate(-510.336 -1028)"/>
        </g>
      </g>
      <path id="Path_1514" data-name="Path 1514" class="cls-2" d="M1859.071,515.86c0-.9-.035-1.805-.069-2.673l11.387-9.165a61.175,61.175,0,0,0-4.131-13.088l-14.719-1.111a48.676,48.676,0,0,0-12.741-13.5l-.035-14.685a60.506,60.506,0,0,0-13.053-5.034l-10.068,10.831c-1.736-.174-3.506-.278-5.277-.278a48.743,48.743,0,0,0-12.81,1.7l-11.526-9.13a60.02,60.02,0,0,0-12.185,7.082l2.187,14.546a48.681,48.681,0,0,0-10.276,15l-14.338,3.333A60.681,60.681,0,0,0,1749.3,513.5l12.636,7.325a48.954,48.954,0,0,0,5.416,17.879l-6.318,13.261a59.757,59.757,0,0,0,9.3,10.1l13.539-5.312a47.944,47.944,0,0,0,17.879,7.082l6.388,13.157c.764.035,1.528.035,2.291.035a59.889,59.889,0,0,0,11.213-1.042l4.3-13.921a48.452,48.452,0,0,0,16.8-9.755l14.233,3.194a61.845,61.845,0,0,0,7.6-11.213l-8.262-12.116A50.918,50.918,0,0,0,1859.071,515.86Zm-49.262,21.454a20.517,20.517,0,1,1,20.517-20.517A20.535,20.535,0,0,1,1809.81,537.314Z" transform="translate(-1251.408 -298.088)"/>
    </g>
    <g id="Group_1217" data-name="Group 1217" transform="translate(793.729 52.067)">
      <g id="Group_1214" data-name="Group 1214" class="cls-4" transform="translate(83.005 5.144)">
        <path id="Path_1515" data-name="Path 1515" class="cls-2" d="M2555.494,207.153h-17.635a12.386,12.386,0,0,1-12.359-12.359V177.159a12.386,12.386,0,0,1,12.359-12.359h17.635a12.386,12.386,0,0,1,12.359,12.359v17.636A12.409,12.409,0,0,1,2555.494,207.153Zm-17.635-37.493a7.512,7.512,0,0,0-7.5,7.5v17.636a7.512,7.512,0,0,0,7.5,7.5h17.635a7.512,7.512,0,0,0,7.5-7.5V177.159a7.512,7.512,0,0,0-7.5-7.5Z" transform="translate(-2525.5 -164.8)"/>
      </g>
      <g id="Group_1215" data-name="Group 1215" class="cls-4" transform="translate(0 5.144)">
        <path id="Path_1516" data-name="Path 1516" class="cls-2" d="M2316.394,207.153h-17.636a12.386,12.386,0,0,1-12.359-12.359V177.159a12.386,12.386,0,0,1,12.359-12.359h17.636a12.386,12.386,0,0,1,12.359,12.359v17.636A12.386,12.386,0,0,1,2316.394,207.153Zm-17.636-37.493a7.512,7.512,0,0,0-7.5,7.5v17.636a7.512,7.512,0,0,0,7.5,7.5h17.636a7.512,7.512,0,0,0,7.5-7.5V177.159a7.512,7.512,0,0,0-7.5-7.5Z" transform="translate(-2286.4 -164.8)"/>
      </g>
      <g id="Group_1216" data-name="Group 1216" transform="translate(7.524)">
        <path id="Path_1517" data-name="Path 1517" class="cls-5" d="M2322.837,187.2h-.1a2.1,2.1,0,0,1-1.562-.8L2308.5,169.881a2.08,2.08,0,0,1,3.3-2.534l11.178,14.581,29.2-31.279a2.088,2.088,0,1,1,3.055,2.847l-30.862,33.084A2.312,2.312,0,0,1,2322.837,187.2Z" transform="translate(-2308.073 -149.983)"/>
      </g>
    </g>
    <path id="Path_1518" data-name="Path 1518" class="cls-6" d="M1100.669,1581.463c-72.208-3.541-317.822,2.465-392.5,4.791-74.708,2.326-161.393-3.09-206.454-11.04-45.026-7.95-305.394.659-293.556,22.044,11.8,21.385,115.985,9.547,234.122,18.156s383.851-1.076,443.77,0,114.909-2.152,192.117-6.457S1142.5,1583.511,1100.669,1581.463Z" transform="translate(-135.652 -1026.464)"/>
    <g id="Group_1222" data-name="Group 1222" transform="translate(76.122 107.966)">
      <rect id="Rectangle_145" data-name="Rectangle 145" class="cls-7" width="150.909" height="247.384"/>
      <rect id="Rectangle_146" data-name="Rectangle 146" class="cls-3" width="138.064" height="232.907" transform="translate(7.915 5.068)"/>
      <g id="Group_1221" data-name="Group 1221" transform="translate(15.9 14.511)">
        <g id="Group_1218" data-name="Group 1218" transform="translate(33.292 14.312)">
          <path id="Path_1519" data-name="Path 1519" class="cls-8" d="M361,566.854c5.207-11.178,13.99-14.754,28.432-14.754,17.184,0,26.141,6.214,28.64,15.31C387.28,567.826,361,566.854,361,566.854Z" transform="translate(-361 -497.223)"/>
          <path id="Path_1520" data-name="Path 1520" class="cls-9" d="M384.787,394.538c-7.29,2.048-6.943,6.145-9.373,9.929s-7.707,6.318-8.332,8.852,1.632,7.811-1.041,10.762-3.576,4.444-2.534,7.394,3.367,7.6,3.576,8.228,3.159,5.068,6.735,5.693,10.345,1.7,13.713,3.159c3.367,1.493,14.233-1.875,20.239-1.666s10.137-4.235,9.686-7.186c-.417-2.951,4.444-8.853,4.444-13.921,0-5.45-6.318-9.477-8.019-13.088-1.7-3.576.208-9.929-6.11-13.678-3.992-2.361-6.735-2.152-9.929-3.229C394.716,394.746,389.439,393.218,384.787,394.538Z" transform="translate(-362.361 -394.026)"/>
          <path id="Path_1521" data-name="Path 1521" class="cls-10" d="M434.387,509.513c-1.632,2.43-2.847,2.534-4.652,0-1.423-2.013-4.235-6.6-4.235-8.922V477.435a4.252,4.252,0,0,1,4.235-4.235h4.652a4.252,4.252,0,0,1,4.235,4.235v23.155C438.622,502.917,435.88,507.325,434.387,509.513Z" transform="translate(-403.108 -445.714)"/>
          <path id="Path_1522" data-name="Path 1522" class="cls-11" d="M434.387,473.3h-4.652a4.252,4.252,0,0,0-4.235,4.235v20.656c5.207,1.666,9.963-1.632,13.088-5.346v-15.31A4.179,4.179,0,0,0,434.387,473.3Z" transform="translate(-403.108 -445.779)"/>
          <ellipse id="Ellipse_48" data-name="Ellipse 48" class="cls-10" cx="14.025" cy="19.128" rx="14.025" ry="19.128" transform="translate(14.928 8.601)"/>
          <path id="Path_1523" data-name="Path 1523" class="cls-9" d="M422.04,415.961c-8.852,14.962-21.94,13.5-21.94,13.5s.312-19.823,10.692-20.864,16.49,3.124,18.608,10,0,11.421,0,11.421a18.4,18.4,0,0,1-5.068-6.839A51.314,51.314,0,0,1,422.04,415.961Z" transform="translate(-386.526 -403.438)"/>
          <ellipse id="Ellipse_49" data-name="Ellipse 49" class="cls-10" cx="3.68" cy="5.52" rx="3.68" ry="5.52" transform="translate(7.364 25.637) rotate(-25.404)"/>
          <path id="Path_1524" data-name="Path 1524" class="cls-10" d="M477.474,466.214c-1.319,2.777-.868,5.693.972,6.6,1.84.868,4.409-.66,5.693-3.4,1.319-2.777.868-5.693-.972-6.6S478.793,463.437,477.474,466.214Z" transform="translate(-436.544 -438.763)"/>
          <path id="Path_1525" data-name="Path 1525" class="cls-3" d="M439.754,503.8s-2.361,3.055-5.277,3.055S429.2,503.8,429.2,503.8Z" transform="translate(-405.524 -465.691)"/>
        </g>
        <path id="Path_1526" data-name="Path 1526" class="cls-7" d="M418.141,666.362h-35.41a4.131,4.131,0,0,1,0-8.262h35.41a4.131,4.131,0,0,1,0,8.262Z" transform="translate(-339.198 -552.113)"/>
        <path id="Path_1527" data-name="Path 1527" class="cls-7" d="M412.425,702.862H364.031a4.131,4.131,0,1,1,0-8.262h48.394a4.131,4.131,0,0,1,0,8.262Z" transform="translate(-326.99 -575.942)"/>
        <path id="Path_1528" data-name="Path 1528" class="cls-7" d="M385.216,840.491H267.5a2.4,2.4,0,0,1,0-4.791H385.216a2.4,2.4,0,1,1,0,4.791Z" transform="translate(-265.1 -668.058)"/>
        <path id="Path_1529" data-name="Path 1529" class="cls-7" d="M385.216,872.491H267.5a2.4,2.4,0,1,1,0-4.791H385.216a2.4,2.4,0,0,1,2.4,2.4A2.446,2.446,0,0,1,385.216,872.491Z" transform="translate(-265.1 -688.949)"/>
        <path id="Path_1530" data-name="Path 1530" class="cls-7" d="M385.216,904.491H267.5a2.4,2.4,0,0,1,0-4.791H385.216a2.4,2.4,0,0,1,2.4,2.4A2.446,2.446,0,0,1,385.216,904.491Z" transform="translate(-265.1 -709.84)"/>
        <g id="Group_1219" data-name="Group 1219" transform="translate(14.581)">
          <path id="Path_1531" data-name="Path 1531" class="cls-7" d="M396.146,439.485H311.37a4.267,4.267,0,0,1-4.27-4.27V357.07a4.267,4.267,0,0,1,4.27-4.27h84.776a4.267,4.267,0,0,1,4.27,4.27v78.145A4.267,4.267,0,0,1,396.146,439.485ZM311.37,356.272a.808.808,0,0,0-.8.8v78.145a.807.807,0,0,0,.8.8h84.776a.807.807,0,0,0,.8-.8V357.07a.808.808,0,0,0-.8-.8H311.37Z" transform="translate(-307.1 -352.8)"/>
        </g>
        <g id="Group_1220" data-name="Group 1220" transform="translate(23.155 137.648)">
          <path id="Path_1532" data-name="Path 1532" class="cls-7" d="M339.715,749.3l2.465,4.964,5.485.8-3.958,3.888.937,5.45-4.93-2.569L334.82,764.4l.937-5.45-3.958-3.888,5.485-.8Z" transform="translate(-331.8 -749.3)"/>
          <path id="Path_1533" data-name="Path 1533" class="cls-7" d="M397.65,749.3l2.43,4.964,5.485.8-3.958,3.888.937,5.45-4.895-2.569-4.93,2.569.937-5.45-3.958-3.888,5.485-.8Z" transform="translate(-369.6 -749.3)"/>
          <path id="Path_1534" data-name="Path 1534" class="cls-7" d="M455.55,749.3l2.43,4.964,5.52.8-3.992,3.888.937,5.45-4.895-2.569-4.93,2.569.937-5.45-3.958-3.888,5.485-.8Z" transform="translate(-407.399 -749.3)"/>
          <path id="Path_1535" data-name="Path 1535" class="cls-7" d="M513.45,749.3l2.465,4.964,5.485.8-3.992,3.888.937,5.45-4.895-2.569-4.93,2.569.972-5.45-3.992-3.888,5.485-.8Z" transform="translate(-445.199 -749.3)"/>
        </g>
      </g>
    </g>
    <g id="Group_1227" data-name="Group 1227" transform="translate(412.586 107.966)">
      <rect id="Rectangle_147" data-name="Rectangle 147" class="cls-7" width="150.909" height="247.384"/>
      <rect id="Rectangle_148" data-name="Rectangle 148" class="cls-3" width="138.064" height="232.907" transform="translate(7.915 5.068)"/>
      <g id="Group_1226" data-name="Group 1226" transform="translate(15.9 14.511)">
        <g id="Group_1223" data-name="Group 1223" transform="translate(33.292 15.83)">
          <path id="Path_1536" data-name="Path 1536" class="cls-12" d="M1349.1,470.3c0,11.074,6.665,28.953,22.391,28.4,15.726-.59,19.233-17.6,19.823-22.426C1391.939,471.446,1349.1,470.3,1349.1,470.3Z" transform="translate(-1342.539 -445.339)"/>
          <path id="Path_1537" data-name="Path 1537" class="cls-13" d="M1330.2,566.854c5.207-11.178,13.99-14.754,28.432-14.754,17.184,0,26.141,6.214,28.641,15.31C1356.514,567.826,1330.2,566.854,1330.2,566.854Z" transform="translate(-1330.2 -498.742)"/>
          <path id="Path_1538" data-name="Path 1538" class="cls-10" d="M1403.587,509.513c-1.632,2.43-2.847,2.534-4.652,0-1.423-2.013-4.235-6.6-4.235-8.922V477.435a4.252,4.252,0,0,1,4.235-4.235h4.652a4.252,4.252,0,0,1,4.235,4.235v23.155C1407.823,502.917,1405.08,507.325,1403.587,509.513Z" transform="translate(-1372.308 -447.233)"/>
          <path id="Path_1539" data-name="Path 1539" class="cls-11" d="M1403.653,473.3h-4.617a4.252,4.252,0,0,0-4.235,4.235v20.656c5.207,1.666,9.963-1.632,13.088-5.346v-15.31A4.23,4.23,0,0,0,1403.653,473.3Z" transform="translate(-1372.374 -447.298)"/>
          <ellipse id="Ellipse_50" data-name="Ellipse 50" class="cls-10" cx="14.025" cy="19.128" rx="14.025" ry="19.128" transform="translate(14.962 7.082)"/>
          <path id="Path_1540" data-name="Path 1540" class="cls-12" d="M1379.147,410.1c-1.666,5.867-5.312,5.8-10.415,7.742s-7.533,3.888-9.2,7.637c-2.118,4.791.972,18.781.972,18.781s-12.88-9.651-11.422-24.822c1.493-15.171,10.449-21.038,18.851-21.038,8.436,0,11.63,5.138,11.63,5.138s4.478.035,8.714,5.034c5.693,6.77,3.958,23.155,0,29.022s-6.6,7.707-6.492,7.464c.1-.278,3.68-13.747,1.77-22.114A52.8,52.8,0,0,0,1379.147,410.1Z" transform="translate(-1342.453 -398.4)"/>
          <path id="Path_1541" data-name="Path 1541" class="cls-3" d="M1408.954,503.8s-2.361,3.055-5.277,3.055-5.277-3.055-5.277-3.055Z" transform="translate(-1374.724 -467.21)"/>
        </g>
        <path id="Path_1542" data-name="Path 1542" class="cls-7" d="M1387.341,666.362h-35.41a4.131,4.131,0,1,1,0-8.262h35.41a4.131,4.131,0,0,1,0,8.262Z" transform="translate(-1308.398 -552.113)"/>
        <path id="Path_1543" data-name="Path 1543" class="cls-7" d="M1381.625,702.862h-48.394a4.131,4.131,0,0,1,0-8.262h48.394a4.131,4.131,0,1,1,0,8.262Z" transform="translate(-1296.19 -575.942)"/>
        <path id="Path_1544" data-name="Path 1544" class="cls-7" d="M1354.416,840.491H1236.7a2.4,2.4,0,0,1,0-4.791h117.721a2.4,2.4,0,1,1,0,4.791Z" transform="translate(-1234.3 -668.058)"/>
        <path id="Path_1545" data-name="Path 1545" class="cls-7" d="M1354.416,872.491H1236.7a2.4,2.4,0,1,1,0-4.791h117.721a2.4,2.4,0,1,1,0,4.791Z" transform="translate(-1234.3 -688.949)"/>
        <path id="Path_1546" data-name="Path 1546" class="cls-7" d="M1354.416,904.491H1236.7a2.4,2.4,0,0,1,0-4.791h117.721a2.4,2.4,0,1,1,0,4.791Z" transform="translate(-1234.3 -709.84)"/>
        <g id="Group_1224" data-name="Group 1224" transform="translate(14.581)">
          <path id="Path_1547" data-name="Path 1547" class="cls-7" d="M1365.346,439.485H1280.57a4.267,4.267,0,0,1-4.27-4.27V357.07a4.267,4.267,0,0,1,4.27-4.27h84.776a4.267,4.267,0,0,1,4.27,4.27v78.145A4.267,4.267,0,0,1,1365.346,439.485Zm-84.776-83.213a.808.808,0,0,0-.8.8v78.145a.808.808,0,0,0,.8.8h84.776a.807.807,0,0,0,.8-.8V357.07a.807.807,0,0,0-.8-.8H1280.57Z" transform="translate(-1276.3 -352.8)"/>
        </g>
        <g id="Group_1225" data-name="Group 1225" transform="translate(23.155 137.648)">
          <path id="Path_1548" data-name="Path 1548" class="cls-7" d="M1308.95,749.3l2.43,4.964,5.485.8-3.958,3.888.937,5.45-4.895-2.569-4.93,2.569.937-5.45L1301,755.063l5.485-.8Z" transform="translate(-1301 -749.3)"/>
          <path id="Path_1549" data-name="Path 1549" class="cls-7" d="M1366.85,749.3l2.43,4.964,5.52.8-3.992,3.888.938,5.45-4.9-2.569-4.93,2.569.937-5.45-3.958-3.888,5.485-.8Z" transform="translate(-1338.8 -749.3)"/>
          <path id="Path_1550" data-name="Path 1550" class="cls-7" d="M1424.75,749.3l2.465,4.964,5.485.8-3.992,3.888.937,5.45-4.895-2.569-4.93,2.569.972-5.45-3.992-3.888,5.485-.8Z" transform="translate(-1376.599 -749.3)"/>
          <path id="Path_1551" data-name="Path 1551" class="cls-7" d="M1482.65,749.3l2.465,4.964,5.485.8-3.992,3.888.937,5.45-4.895-2.569-4.9,2.569.937-5.45-3.992-3.888,5.485-.8Z" transform="translate(-1414.399 -749.3)"/>
        </g>
      </g>
    </g>
    <path id="Path_1552" data-name="Path 1552" class="cls-14" d="M789.484,557.682H551.3L568.137,313.7H798.059Z" transform="translate(-359.922 -204.797)"/>
    <g id="Group_1232" data-name="Group 1232" transform="translate(216.373 62.731)">
      <rect id="Rectangle_149" data-name="Rectangle 149" class="cls-7" width="206.142" height="337.888"/>
      <rect id="Rectangle_150" data-name="Rectangle 150" class="cls-3" width="188.575" height="318.1" transform="translate(10.797 6.874)"/>
      <g id="Group_1231" data-name="Group 1231" transform="translate(21.732 20.448)">
        <g id="Group_1228" data-name="Group 1228" transform="translate(43.116 14.704)">
          <path id="Path_1553" data-name="Path 1553" class="cls-15" d="M868.2,320.506c-.139-.382-3.437-19.337-3.819-26.7s11.838-8.436,11.838-8.436,10-5.381,17.254-2.638a29.416,29.416,0,0,1,15.448,13.192c3.3,5.8-2.881,23.85-2.881,23.85Z" transform="translate(-845.532 -281.956)"/>
          <path id="Path_1554" data-name="Path 1554" class="cls-16" d="M810.1,515.389c-.035-.312.833-7.776.868-8.054C812.632,491.644,832,487.2,851.306,487.2c22.7,0,38.083,4.166,40.548,20.482.069.486,1.389,7.95,1.319,8.471C851.1,516.674,810.1,515.389,810.1,515.389Z" transform="translate(-810.097 -415.948)"/>
          <path id="Path_1555" data-name="Path 1555" class="cls-10" d="M912.189,429.139c-2.257,3.333-3.888,3.472-6.353,0-1.944-2.743-8.436-9.026-8.436-12.185l2.673-31.591a5.793,5.793,0,0,1,5.763-5.763h6.353a5.793,5.793,0,0,1,5.763,5.763l1.25,31.591C919.2,420.113,914.2,426.154,912.189,429.139Z" transform="translate(-867.092 -345.702)"/>
          <path id="Path_1556" data-name="Path 1556" class="cls-11" d="M912.842,379.5h-6.353a5.793,5.793,0,0,0-5.763,5.763l-2.326,28.05c7.117,2.257,16.733-2.326,20.968-7.429l-.8-20.621A5.741,5.741,0,0,0,912.842,379.5Z" transform="translate(-867.745 -345.637)"/>
          <path id="Path_1557" data-name="Path 1557" class="cls-17" d="M868.2,492.69l10.172,18.781s5.45-4.478,5.971-3.61-.972,11.942-.972,11.942,12.116.174,12.636-.347-2.465-12.012-1.215-12.012c1.215,0,4.93,3.333,4.93,3.333l11.352-18.087-2.5-.59L890,502.1l-19.892-9.79Z" transform="translate(-848.029 -419.147)"/>
          <path id="Path_1558" data-name="Path 1558" class="cls-13" d="M901.7,513.477l7.533,5.069-2.326,13.435,10.172-.555-2.534-12.22,6.249-5.728-2.951-2.777H904.651Z" transform="translate(-869.899 -431.29)"/>
          <path id="Path_1559" data-name="Path 1559" class="cls-16" d="M881.438,465.668l-9.339,8.887s9.512,16.906,10.033,16.906,8.054-9.339,8.054-9.339l4.826-.069,7.637,8.019,8.853-15.691-9.026-9.582s-7.707,14.928-9.13,15.275c-1.389.347-1.423.521-2.534-.347S881.438,465.668,881.438,465.668Z" transform="translate(-850.575 -401.325)"/>
          <ellipse id="Ellipse_51" data-name="Ellipse 51" class="cls-10" cx="19.163" cy="26.106" rx="19.163" ry="26.106" transform="translate(22.775 8.104)"/>
          <path id="Path_1560" data-name="Path 1560" class="cls-10" d="M862.163,369.9c1.805,3.784,1.215,7.811-1.319,8.991-2.5,1.18-6.006-.9-7.811-4.652-1.805-3.784-1.215-7.811,1.319-8.991C856.887,364.033,860.393,366.116,862.163,369.9Z" transform="translate(-837.445 -336.107)"/>
          <path id="Path_1561" data-name="Path 1561" class="cls-10" d="M975.933,369.9c-1.805,3.784-1.215,7.811,1.319,8.991,2.5,1.18,6.006-.9,7.811-4.652,1.805-3.784,1.215-7.811-1.319-8.991C981.21,364.033,977.738,366.116,975.933,369.9Z" transform="translate(-917.679 -336.107)"/>
          <path id="Path_1562" data-name="Path 1562" class="cls-3" d="M923.411,411.3s-3.819,6.179-8.505,6.179S906.4,411.3,906.4,411.3Z" transform="translate(-872.968 -366.397)"/>
          <path id="Path_1563" data-name="Path 1563" class="cls-15" d="M883.424,309.133c7.88-5.52,11.456-4.617,17.358,4.478,5.936,9.1,13.018,9.234,13.018,9.234l.937-9.408s-8.818-17.08-20.656-14.824c-11.838,2.222-18.573,12.879-18.573,12.879s-.59,19.962,1.076,20.656,1.84-6.457,3.02-7.88c1.18-1.458-1.18-8.3.382-11.456C881.584,309.653,883.424,309.133,883.424,309.133Z" transform="translate(-852.735 -292.697)"/>
          <path id="Path_1564" data-name="Path 1564" class="cls-15" d="M971.7,358.9c2.742,3.02,1.7,15,3.159,14.858s1.979-11.456,1.562-12.637C976.039,359.941,971.7,358.9,971.7,358.9Z" transform="translate(-915.598 -332.189)"/>
        </g>
        <path id="Path_1565" data-name="Path 1565" class="cls-7" d="M877.528,666.148h-88a5.624,5.624,0,1,1,0-11.248h88a5.624,5.624,0,0,1,0,11.248Z" transform="translate(-749.879 -510.726)"/>
        <path id="Path_1566" data-name="Path 1566" class="cls-7" d="M887.223,715.848h-66.1a5.624,5.624,0,0,1,0-11.248h66.1a5.624,5.624,0,0,1,0,11.248Z" transform="translate(-770.508 -543.172)"/>
        <path id="Path_1567" data-name="Path 1567" class="cls-7" d="M849.931,903.827H689.163a3.263,3.263,0,1,1,0-6.527H849.931a3.263,3.263,0,1,1,0,6.527Z" transform="translate(-685.9 -668.975)"/>
        <path id="Path_1568" data-name="Path 1568" class="cls-7" d="M849.931,947.526H689.163a3.263,3.263,0,1,1,0-6.527H849.931a3.263,3.263,0,1,1,0,6.527Z" transform="translate(-685.9 -697.504)"/>
        <path id="Path_1569" data-name="Path 1569" class="cls-7" d="M849.931,991.227H689.163a3.263,3.263,0,1,1,0-6.527H849.931a3.263,3.263,0,1,1,0,6.527Z" transform="translate(-685.9 -726.034)"/>
        <g id="Group_1229" data-name="Group 1229" transform="translate(20.552)">
          <path id="Path_1570" data-name="Path 1570" class="cls-7" d="M866.119,356.731H750.307a5.223,5.223,0,0,1-5.207-5.207V244.807a5.223,5.223,0,0,1,5.207-5.207H866.119a5.223,5.223,0,0,1,5.207,5.207V351.523A5.268,5.268,0,0,1,866.119,356.731ZM750.307,243.072a1.741,1.741,0,0,0-1.736,1.736V351.523a1.741,1.741,0,0,0,1.736,1.736H866.119a1.741,1.741,0,0,0,1.736-1.736V244.807a1.741,1.741,0,0,0-1.736-1.736Z" transform="translate(-745.1 -239.6)"/>
        </g>
        <g id="Group_1230" data-name="Group 1230" transform="translate(17.67 187.36)">
          <path id="Path_1571" data-name="Path 1571" class="cls-7" d="M747.666,779.3,751,786.1l7.5,1.076-5.416,5.312,1.284,7.464-6.7-3.541-6.735,3.541,1.284-7.464L736.8,787.18l7.5-1.076Z" transform="translate(-736.8 -779.3)"/>
          <path id="Path_1572" data-name="Path 1572" class="cls-7" d="M826.766,779.3l3.333,6.8,7.5,1.076-5.416,5.312,1.285,7.464-6.7-3.541-6.735,3.541,1.285-7.464L815.9,787.18l7.5-1.076Z" transform="translate(-788.44 -779.3)"/>
          <path id="Path_1573" data-name="Path 1573" class="cls-7" d="M905.866,779.3l3.333,6.8,7.5,1.076-5.416,5.312,1.284,7.464-6.7-3.541-6.735,3.541,1.284-7.464L895,787.18l7.5-1.076Z" transform="translate(-840.08 -779.3)"/>
          <path id="Path_1574" data-name="Path 1574" class="cls-7" d="M984.966,779.3l3.333,6.8,7.5,1.076-5.416,5.312,1.284,7.464-6.7-3.541-6.735,3.541,1.284-7.464L974.1,787.18l7.5-1.076Z" transform="translate(-891.72 -779.3)"/>
          <path id="Path_1575" data-name="Path 1575" class="cls-7" d="M1065.331,779.3l3.367,6.8,7.5,1.076-5.45,5.312,1.284,7.464-6.7-3.541-6.7,3.541,1.285-7.464-5.416-5.312,7.5-1.076Z" transform="translate(-944.208 -779.3)"/>
        </g>
      </g>
    </g>
    <path id="Path_1576" data-name="Path 1576" class="cls-18" d="M1667.915,1103.767H1403.381a2.874,2.874,0,0,1-2.881-2.881v-4.3a2.874,2.874,0,0,1,2.881-2.881h264.533a2.874,2.874,0,0,1,2.881,2.881v4.3A2.874,2.874,0,0,1,1667.915,1103.767Z" transform="translate(-914.317 -714.015)"/>
    <g id="Group_1237" data-name="Group 1237" transform="translate(592.947 207.582)">
      <path id="Path_1577" data-name="Path 1577" class="cls-10" d="M2299.125,670.059c3.576,12.636-5.173,25.655-14.824,28.4s-16.524-5.867-20.1-18.5,1.319-25.1,10.97-27.842C2284.822,649.4,2295.549,657.423,2299.125,670.059Z" transform="translate(-2070.361 -632.966)"/>
      <path id="Path_1578" data-name="Path 1578" class="cls-10" d="M2190.279,1410.1s24.718,38.4,28.05,40.062,11.7,2.083,8.54,8.332c-3.124,6.249-4.374,30.862-7.29,32.112s-27.946,4.166-24.2,0,6.075-2.083,7.95-9.582c1.909-7.5,4.548-21.7,1.007-24.613s-25.238-29.2-25.238-29.2Z" transform="translate(-2015.568 -1128.157)"/>
      <path id="Path_1579" data-name="Path 1579" class="cls-10" d="M1758.424,1457.6s-30.029,49.5-35.618,53.948c-5.555,4.444-23.919,11.144-8.887,12.255s22.253-5,31.7-7.776,21.142-4.444,16.7-11.7c-4.444-7.221-2.6-23.016,6.978-33.049C1778.872,1461.28,1758.424,1457.6,1758.424,1457.6Z" transform="translate(-1708.099 -1159.167)"/>
      <path id="Path_1580" data-name="Path 1580" class="cls-19" d="M1982.28,1126.83s-74.361-1.944-103.869,22.253c-17.254,26.141-58.982,103.279-62.21,111.784,2.222,2.222,14.754,6.249,20.309,5.693,16.421-19.58,38.118-36.486,46.727-51.83,10.623-18.92,13.921-28.363,31.14-30.029,17.254-1.666,56.2-7.221,67.869-7.221S1982.28,1126.83,1982.28,1126.83Z" transform="translate(-1778.651 -943.202)"/>
      <path id="Path_1581" data-name="Path 1581" class="cls-18" d="M2421.469,1429.41h-3.923L2389.6,1312.8h8.575Z" transform="translate(-2152.991 -1064.635)"/>
      <path id="Path_1582" data-name="Path 1582" class="cls-18" d="M2145,1421.641h3.888l32.077-120.741h-8.575Z" transform="translate(-1993.306 -1056.866)"/>
      <path id="Path_1583" data-name="Path 1583" class="cls-20" d="M2141.628,1112.2l-43.221,7.464s-57.454.521-83.734,5.416c-23.884,4.444-27.425,31.591,0,68.98,15.587,21.246,28.745,38.187,55.684,57.281,6.839-5.034,9.478-6.943,11.352-19.024-1.944-2.673-6.978-19.406-8.575-22.669-14.893-31.14-34.785-42.457-35.063-45.512,3.333-5.416,88.421,28.259,105.327,8.436C2159.576,1153.65,2141.628,1112.2,2141.628,1112.2Z" transform="translate(-1895.646 -933.675)"/>
      <path id="Path_1584" data-name="Path 1584" class="cls-5" d="M2318.007,829.374a45.2,45.2,0,0,0-33.848,8.436c-9.477,9.651-20.2,25.585-19.545,51.865.833,33.362-5.173,35.514,1.076,44.714,26.106,10.762,70.75,57.107,60.232,7.429-7.6-35.965,16.7-62.731-2.916-102.62C2321.444,835.935,2319.431,832.776,2318.007,829.374Z" transform="translate(-2070.22 -748.712)"/>
      <path id="Path_1585" data-name="Path 1585" class="cls-13" d="M2264.661,917.888c-.521,17.393-2.951,22.531-1.076,27.981,10.657,1.076,30.1,5.346,34.958,12.151,5.555,7.776,11.144,8.887,8.54,3.159-2.6-5.763-9.443-13.921,1.111-41.9,10.554-28.016,15.587-46.9,5.208-66.376Z" transform="translate(-2070.266 -764.392)"/>
      <path id="Path_1586" data-name="Path 1586" class="cls-10" d="M2358.147,764.036c-7.012-16.594-8.748-35.236-8.748-35.236l-18.365,5.416s10.415,23.364.417,31.7c-2.118,1.771-4.583,3.923-7.152,6.527A45.324,45.324,0,0,1,2358.147,764.036Z" transform="translate(-2110.36 -683.375)"/>
      <path id="Path_1587" data-name="Path 1587" class="cls-11" d="M2362.685,735.037c-1.076-.972-2.465-2.187-3.888-3.437l-14.962,4.409a.121.121,0,0,1-.035.069c.347.833,4.166,9.72,4.687,18.3,4.479-2.708,9.338-7.117,14.928-14.824C2363.1,737.849,2362.859,736.321,2362.685,735.037Z" transform="translate(-2123.091 -685.203)"/>
      <path id="Path_1588" data-name="Path 1588" class="cls-10" d="M2174.93,844.31c-18.92,6.6-16.8,26.523-34.2,55.892-8.991,15.205-17.358,14.963-17.358,14.963a402.094,402.094,0,0,1-46.658-2.951c-16-1.944-17.011,2.812-5.9,6.77,22.426,8.019,45.72,16.663,64.5,14.581s50.893-49.991,52.559-62.453C2190.135,853.892,2184.442,840.977,2174.93,844.31Z" transform="translate(-1940.056 -758.441)"/>
      <g id="Group_1233" data-name="Group 1233" transform="translate(158.637 126.978)">
        <path id="Path_1589" data-name="Path 1589" class="cls-18" d="M2231.478,1089.762c-1.18,0-2.4,0-3.61-.035a178.036,178.036,0,0,1-34.334-4.235c-9.824-2.014-15.275-3.09-21.559-.1a4.868,4.868,0,1,1-4.2-8.783c9.234-4.409,16.976-2.847,27.7-.66a170.931,170.931,0,0,0,32.633,4.027c16.281.417,26.21-2.014,31.244-7.6,4.479-4.964,5.8-13.331,4.131-26.314-.556-4.444-1.146-8.123-1.632-11.387-1.423-9.2-2.36-15.275-1.18-24.648,1.076-8.714,3.958-20.309,10.658-42.839a4.855,4.855,0,1,1,9.3,2.777c-12.463,41.937-11.838,46.033-9.165,63.217.521,3.3,1.076,7.082,1.667,11.63,2.048,16-.035,26.8-6.561,34.056C2259.876,1086.36,2248.975,1089.762,2231.478,1089.762Z" transform="translate(-2164.997 -963.715)"/>
      </g>
      <path id="Path_1590" data-name="Path 1590" class="cls-13" d="M1760.375,1577.8c-19.927,9.755-30.654,15.344-37.042,14.789-1.493-.139-2.743-.278-3.819-.451-7.117,4.2-18.469,9.165-5.693,10.1,15.032,1.111,22.253-5,31.7-7.776s21.142-4.444,16.7-11.7A14.941,14.941,0,0,1,1760.375,1577.8Z" transform="translate(-1708.037 -1237.639)"/>
      <path id="Path_1591" data-name="Path 1591" class="cls-13" d="M2250.316,1527.9c-.486,15.8-2.673,31.418-12.324,34.369a15.927,15.927,0,0,1-6.943.625c-1.527,1.875-3.367,1.909-5.867,4.652-3.749,4.166,21.281,1.25,24.2,0s4.166-25.863,7.29-32.112C2259.273,1530.3,2254.1,1529.08,2250.316,1527.9Z" transform="translate(-2045.403 -1205.062)"/>
      <g id="Group_1234" data-name="Group 1234" transform="translate(34.348 108.635)">
        <path id="Path_1592" data-name="Path 1592" class="cls-20" d="M1900.752,975.7h-63.321a4.906,4.906,0,0,1-4.409-2.812l-25.586-55.094a4.861,4.861,0,0,1,8.818-4.1l24.3,52.247h60.232a4.878,4.878,0,0,1-.035,9.755Z" transform="translate(-1806.978 -910.877)"/>
      </g>
      <path id="Path_1593" data-name="Path 1593" class="cls-10" d="M2009.375,1029.792c-12.81-.174-25.481-7.811-31.8-6.7s-26.9,15.379-24.3,15.934,18.92-7.915,19.475-8.019c.555-.139,4.1,5.867,12.81,8.054s.069-6.527,27.078,1.632C2030.2,1046,2009.375,1029.792,2009.375,1029.792Z" transform="translate(-1867.991 -875.429)"/>
      <path id="Path_1594" data-name="Path 1594" class="cls-21" d="M2334.925,786.6l1.875,15.136s-16.559.972-24.787,5.624-20.413,18.017-20.413,18.017l9.929-17.115,1.423-10.935Z" transform="translate(-2089.012 -721.109)"/>
      <path id="Path_1595" data-name="Path 1595" class="cls-21" d="M2214.711,839.435c-12.289-2.291-17.982,8.714-25.967,26.7s-21.593,39.819-24.3,42.665c-2.708,2.812-45.616,0-45.616,0s-1.284,12.428,0,13.921S2127.54,924,2127.54,924s2.951,2.361,5.763,4.235c2.777,1.875,26.349,5.416,37.284,4.826s20.968-1.493,22.427-3.159c1.493-1.666,31.348-47.665,33.188-64.155C2228.042,849.295,2220.96,840.616,2214.711,839.435Z" transform="translate(-1975.846 -755.406)"/>
      <path id="Path_1596" data-name="Path 1596" class="cls-22" d="M2254.324,606.334c-23.26,1.111-19.615,36.1-19.615,36.1s6.041,1.875,18.712-.208c-.972-3.749-.555-13.366-.555-13.366A87.02,87.02,0,0,0,2256.2,641.4c2.673,1.215,5.693.139,10.866-1.111,2.638,11.109,10.1,15.83,15.205,17.427,5.659,1.771,11.63,3.888,18.3.555s3.02-37.458-.555-44.332c-5.312-10.311-14.164-19.51-29.474-14.65A113.233,113.233,0,0,0,2254.324,606.334Z" transform="translate(-2051.736 -597.95)"/>
      <path id="Path_1597" data-name="Path 1597" class="cls-22" d="M2408.1,737.034l9.512,13.886s-10.553,26.349,20.1,38.257c24.023,9.339,21.177,25.794,10.345,42.353s6.492,31,6.492,31,2.638-18.33,25.967-21.8c31.8-4.721,40.826-47.422,17.045-68.772-19.649-17.67-25.62-3.02-38.951-18.885-13.3-15.865-38.43-5.138-38.43-5.138l-9.2-13.435Z" transform="translate(-2165.069 -687.096)"/>
      <g id="Group_1235" data-name="Group 1235" transform="translate(254.267 54.832)">
        <path id="Path_1598" data-name="Path 1598" class="cls-22" d="M2529.627,828.975a.925.925,0,0,1-.417-.1.849.849,0,0,1-.347-1.146c7.984-14.615,1.458-32.32-1.805-37.111-.347-.521-.694-1.007-1.041-1.562-3.229-5.034-7.221-11.283-28.641-15.136-5.173-.937-9.338-3.992-13.747-7.255-9.13-6.7-19.476-14.3-41.971-3.958a.839.839,0,0,1-.694-1.527c23.4-10.762,34.16-2.847,43.672,4.131,4.27,3.124,8.3,6.075,13.053,6.943,22.148,3.992,26.384,10.588,29.786,15.9.347.521.659,1.042,1.007,1.528,3.437,5.034,10.276,23.572,1.91,38.881A.872.872,0,0,1,2529.627,828.975Z" transform="translate(-2440.465 -755.898)"/>
      </g>
      <g id="Group_1236" data-name="Group 1236" transform="translate(213.107 31.123)">
        <path id="Path_1599" data-name="Path 1599" class="cls-22" d="M2346.757,720.649a36.447,36.447,0,0,1-4.93-.382c-8.124-1.215-19.059-5.832-19.927-31.8a.852.852,0,0,1,.833-.868.831.831,0,0,1,.868.833c.347,10.692,2.465,18.608,6.318,23.537,2.916,3.749,6.77,5.832,12.15,6.665,7.533,1.111,12.532-.278,14.823-4.131a.834.834,0,0,1,1.424.868C2356.234,718.879,2352.346,720.649,2346.757,720.649Z" transform="translate(-2321.9 -687.6)"/>
      </g>
    </g>
    <path id="Path_1600" data-name="Path 1600" class="cls-18" d="M1482.2,1299.233h6.249l24.3-185.833H1499Z" transform="translate(-967.654 -726.876)"/>
    <path id="Path_1601" data-name="Path 1601" class="cls-18" d="M2035.584,1299.233h-6.249L2005,1113.4h13.747Z" transform="translate(-1308.96 -726.876)"/>
    <g id="Group_1238" data-name="Group 1238" transform="translate(896.175 372.17)">
      <path id="Path_1602" data-name="Path 1602" class="cls-23" d="M2777.782,1196.9c10.8,9.859,6.11,19.753-1.875,38.083s-9.408,86.026-9.408,86.026l6.6-.937s-.937-69.57,7.985-88.386,12.706-28.189,20.691-22.079S2777.782,1196.9,2777.782,1196.9Z" transform="translate(-2702.276 -1153.559)"/>
      <path id="Path_1603" data-name="Path 1603" class="cls-24" d="M2780.8,1102.585c1.319-5.867,9.1-12.185,19.545-17.566-1.562,8.644-6.527,22.739-1.389,25.62,6.943,3.888.659-15.8,3.367-26.627a128.213,128.213,0,0,1,32.424-10.623c0,.035-.035.069-.035.1-6.11,15.518-14.095,21.628-10.8,23.989,2.465,1.771,10.553-16.143,21.177-25.342,7.985-.417,14.754.66,18.747,3.819,6.179,4.9,10.345,9.234,4.131,24.127a27.819,27.819,0,0,1-13.5,4.895c-14.094,1.423-20.69,1.875-10.8,6.6,4.826,2.291,12.949-.139,19.51-1.6-2.118,3.923-4.756,8.366-7.95,13.435a49.734,49.734,0,0,1-6.6,8.4c-4.548.868-8.505.868-10.623-.035-6.6-2.812-23.5-11.769-27.738-7.985-4.131,3.68,31.348,6.006,28.883,15.379-17.184,9.894-36.868,5.207-40.374-3.888C2794.1,1123.1,2776.843,1120.22,2780.8,1102.585Z" transform="translate(-2711.23 -1072.053)"/>
      <path id="Path_1604" data-name="Path 1604" class="cls-23" d="M2784.266,1341.293c-18.816-14.094-38.083-.937-47.942,14.095s-2.812,48.88-2.812,48.88,3.75,0,3.75-1.423-10.345-39.958,14.094-57.35c15.31-10.866,26.315-5.624,27.738-.486s-6.11,14.581-6.11,14.581Z" transform="translate(-2679.147 -1243.9)"/>
      <path id="Path_1605" data-name="Path 1605" class="cls-24" d="M2758.152,1269.1c18.816,0,24.926,29.161,19.753,46.068s-12.22,48.428-12.22,48.428l-4.687-4.687s17.879-44.193,13.643-63.946-14.581-23.051-16.455-23.051C2756.278,1271.912,2758.152,1269.1,2758.152,1269.1Z" transform="translate(-2696.289 -1200.694)"/>
      <path id="Path_1606" data-name="Path 1606" class="cls-23" d="M2796.321,1394.366a13.765,13.765,0,0,1,4.964-4.166c-.278,1.389-.59,2.743-.972,4.027-2.361,7.707-5.1,18.434-7.395,27.842-.208-1.215-.521-3.055-1.042-5.936-.1-.66-.208-1.423-.278-2.187A182.77,182.77,0,0,0,2796.321,1394.366Z" transform="translate(-2718.662 -1279.753)"/>
      <path id="Path_1607" data-name="Path 1607" class="cls-24" d="M2801.707,1352.764c35.722-15.032,16.907-35.688,48.394-22.044,2.222.972,4.93,3.367,7.637,6.735a23.56,23.56,0,0,1-9.963.8c-9.408-1.423-6.11,6.11,9.408,7.985a33.757,33.757,0,0,1,7.255,1.528c7.395,14.2,10.728,32.876-4.929,39.367a35.349,35.349,0,0,1-11.144,2.291c-4.825-3.819,1.18-26.037-6.249-22.982-7.152,2.951,2.222,19.024.938,23.086a104.348,104.348,0,0,1-22.322-3.125c-2.951-1.666-5.207-3.888-5.9-6.8-2.361-9.859,13.157-15.969,13.643-24.44.417-7.776-5.693,17.115-21.906,20.76C2791.917,1369.08,2785.009,1359.777,2801.707,1352.764Z" transform="translate(-2718.91 -1238.013)"/>
      <path id="Path_1608" data-name="Path 1608" class="cls-24" d="M2638.85,1261.891c3.749-7.985-6.11-9.859-5.659-3.749.417,5.416.451,18.573-5.1,22.149a86.934,86.934,0,0,1-32.459-10.8,3.976,3.976,0,0,1,.417-2.465c4.235-8.471,31.487-15.518,23.051-18.33-6.735-2.257-18.538,11-28.05,17.7-5.728-4.339-9.547-9.512-9.547-15.275,0-7.811,9.478-16.664,21.767-20.864,5.52.555,10.658,3.576,18.677,8.123,11.838,6.7,9.1-4.131-2.083-10.588a33.617,33.617,0,0,1,26.384,14.476s-.659,4.2,3.784,10.727c12.185,17.775-1.875,28.189-18.677,27.495C2632.289,1275.846,2636.246,1267.411,2638.85,1261.891Z" transform="translate(-2581.5 -1173.732)"/>
      <path id="Path_1609" data-name="Path 1609" class="cls-23" d="M2873.2,1350.043c9.2,7.117,19.406,15.414,31.939,21.038,12.532,5.659,10.033,24.023,10.033,24.023s1.875-15.865-8.575-21.315c-10.45-5.416-17.358-11.908-25.273-13.157a116.824,116.824,0,0,1-12.324-2.5s2.5-5,1.042-6.908S2873.2,1350.043,2873.2,1350.043Z" transform="translate(-2769.192 -1253.448)"/>
      <path id="Path_1610" data-name="Path 1610" class="cls-23" d="M2884.688,1110c-33.64,8.991-58.288,30.515-62.9,35.722-4.583,5.207-4.583,6.7-4.583,6.7l3.541,6.7,1.667-.833s-2.708-5.659,4.374-12.949c12.254-12.6,27.148-22.565,37.389-26.939C2874.446,1113.958,2884.688,1110,2884.688,1110Z" transform="translate(-2735.375 -1096.827)"/>
      <path id="Path_1611" data-name="Path 1611" class="cls-20" d="M2712.959,1559.7H2725.8a16.557,16.557,0,0,0,16.56-16.559V1513.6H2696.4v29.543A16.6,16.6,0,0,0,2712.959,1559.7Z" transform="translate(-2656.512 -1360.314)"/>
      <rect id="Rectangle_151" data-name="Rectangle 151" class="cls-3" width="45.964" height="3.229" transform="translate(39.923 158.563)"/>
      <rect id="Rectangle_152" data-name="Rectangle 152" class="cls-3" width="45.964" height="1.909" transform="translate(39.923 164.464)"/>
    </g>
    <g id="Group_1239" data-name="Group 1239" transform="translate(39.914 513.931)">
      <path id="Path_1612" data-name="Path 1612" class="cls-2" d="M321.9,1497.827h10.97a4.193,4.193,0,0,0,4.2-4.2V1484.6a4.193,4.193,0,0,0-4.2-4.2H321.9a4.193,4.193,0,0,0-4.2,4.2v9.026A4.193,4.193,0,0,0,321.9,1497.827Z" transform="translate(-247.331 -1480.4)"/>
      <path id="Path_1613" data-name="Path 1613" class="cls-2" d="M220.5,1497.827h10.97a4.193,4.193,0,0,0,4.2-4.2V1484.6a4.193,4.193,0,0,0-4.2-4.2H220.5a4.193,4.193,0,0,0-4.2,4.2v9.026A4.238,4.238,0,0,0,220.5,1497.827Z" transform="translate(-181.133 -1480.4)"/>
      <path id="Path_1614" data-name="Path 1614" class="cls-2" d="M119.2,1497.827h10.97a4.193,4.193,0,0,0,4.2-4.2V1484.6a4.193,4.193,0,0,0-4.2-4.2H119.2a4.193,4.193,0,0,0-4.2,4.2v9.026A4.193,4.193,0,0,0,119.2,1497.827Z" transform="translate(-115 -1480.4)"/>
    </g>
    <g id="Group_1240" data-name="Group 1240" transform="translate(1027.782 191.7)">
      <path id="Path_1615" data-name="Path 1615" class="cls-2" d="M2978.027,567.371V556.4a4.193,4.193,0,0,0-4.2-4.2H2964.8a4.193,4.193,0,0,0-4.2,4.2v10.97a4.193,4.193,0,0,0,4.2,4.2h9.026A4.238,4.238,0,0,0,2978.027,567.371Z" transform="translate(-2960.6 -552.2)"/>
      <path id="Path_1616" data-name="Path 1616" class="cls-2" d="M2978.027,668.671V657.7a4.193,4.193,0,0,0-4.2-4.2H2964.8a4.193,4.193,0,0,0-4.2,4.2v10.97a4.193,4.193,0,0,0,4.2,4.2h9.026A4.193,4.193,0,0,0,2978.027,668.671Z" transform="translate(-2960.6 -618.333)"/>
      <path id="Path_1617" data-name="Path 1617" class="cls-2" d="M2978.027,769.971V759a4.193,4.193,0,0,0-4.2-4.2H2964.8a4.193,4.193,0,0,0-4.2,4.2v10.97a4.193,4.193,0,0,0,4.2,4.2h9.026A4.193,4.193,0,0,0,2978.027,769.971Z" transform="translate(-2960.6 -684.466)"/>
    </g>
  </g>
</svg>
